<?xml version="1.0" encoding="utf-8"?>
<!-- Generator: Adobe Illustrator 27.8.1, SVG Export Plug-In . SVG Version: 6.00 Build 0)  -->
<svg version="1.1" xmlns="http://www.w3.org/2000/svg" xmlns:xlink="http://www.w3.org/1999/xlink" x="0px" y="0px"
	 viewBox="0 0 422.84 205.3" style="enable-background:new 0 0 422.84 205.3;" xml:space="preserve">
<style type="text/css">
	.st0{display:none;}
	.st1{display:inline;opacity:0.5;fill:#99CCFF;stroke:#231F20;stroke-miterlimit:10;}
	.st2{display:inline;}
	.st3{font-family:'Helvetica';}
	.st4{font-size:14.6743px;}
	.st5{display:inline;opacity:0.5;fill:#33FF33;stroke:#231F20;stroke-miterlimit:10;}
	.st6{opacity:0.5;fill:#99CCFF;stroke:#231F20;stroke-miterlimit:10;}
	.st7{opacity:0.5;fill:#FF9999;stroke:#231F20;stroke-miterlimit:10;}
	.st8{fill:none;stroke:#231F20;stroke-miterlimit:10;}
	.st9{fill:none;}
</style>
<g id="Layer_1" class="st0">
	<circle class="st1" cx="102.2" cy="101.97" r="94.72"/>
	<text transform="matrix(1 0 0 1 41.0053 95.935)" class="st2"><tspan x="0" y="0" class="st3 st4">people who design</tspan><tspan x="-0.38" y="17.61" class="st3 st4">university websites</tspan></text>
	<circle class="st5" cx="313.28" cy="101.97" r="94.72"/>
	<text transform="matrix(1 0 0 1 239.8541 87.1303)" class="st2"><tspan x="0" y="0" class="st3 st4">people who have seen</tspan><tspan x="-0.81" y="17.61" class="st3 st4">the xkcd cartoon about</tspan><tspan x="11.85" y="35.22" class="st3 st4">university websites</tspan></text>
</g>
<g id="circles">
	<circle class="st6" cx="104.66" cy="102.38" r="94.72"/>
	<circle class="st7" cx="315.75" cy="102.38" r="94.72"/>
</g>
<g id="outlines">
	<circle class="st8" cx="104.66" cy="102.38" r="94.72"/>
	<circle class="st8" cx="315.75" cy="102.38" r="94.72"/>
</g>
<g id="text_website" class="st0">
	<text transform="matrix(1 0 0 1 43.4729 96.2014)" class="st2"><tspan x="0" y="0" class="st3 st4">people who design</tspan><tspan x="-0.38" y="17.61" class="st3 st4">university websites</tspan></text>
	<text transform="matrix(1 0 0 1 242.3216 87.3969)" class="st2"><tspan x="0" y="0" class="st3 st4">people who have seen</tspan><tspan x="-0.81" y="17.61" class="st3 st4">the xkcd cartoon about</tspan><tspan x="11.85" y="35.22" class="st3 st4">university websites</tspan></text>
</g>
<g id="text_grants">
	<g>
		<rect x="244.73" y="77.93" class="st9" width="149.69" height="48.91"/>
		<text transform="matrix(1 0 0 1 251.0495 88.476)"><tspan x="0" y="0" class="st3 st4">people whose advice </tspan><tspan x="13.87" y="17.61" class="st3 st4">about grants you </tspan><tspan x="0.01" y="35.22" class="st3 st4">should take seriously</tspan></text>
	</g>
	<g>
		<rect x="29.82" y="86.67" class="st9" width="149.69" height="31.42"/>
		<text transform="matrix(1 0 0 1 49.1837 97.2217)"><tspan x="0" y="0" class="st3 st4">people who have </tspan><tspan x="-19.16" y="17.61" class="st3 st4">never reviewed a grant</tspan></text>
	</g>
</g>
</svg>
