<?xml version="1.0" encoding="UTF-8"?><svg id="Layer_2" xmlns="http://www.w3.org/2000/svg" viewBox="0 0 261.3 280.92"><defs><style>.cls-1,.cls-2{font-family:Helvetica, Helvetica;}.cls-3{stroke-miterlimit:10;}.cls-3,.cls-4{fill:none;stroke:#000;}.cls-5{font-size:12px;}.cls-6{fill:#f39;opacity:.75;}.cls-2{font-size:8px;}.cls-7{font-size:11px;}</style></defs><text class="cls-1" transform="translate(104.11 262.43)"><tspan class="cls-5"><tspan x="0" y="0">L1 English in noise</tspan></tspan><tspan class="cls-7"><tspan x="3.6" y="13.2">(proportion correct)</tspan></tspan></text><text class="cls-1" transform="translate(10.3 169.41) rotate(-90)"><tspan class="cls-5"><tspan x="0" y="0">L2 English in noise</tspan></tspan><tspan class="cls-7"><tspan x="3.6" y="13.2">(proportion correct)</tspan></tspan></text><line class="cls-4" x1="49.09" y1="33.54" x2="49.09" y2="234.6"/><line class="cls-4" x1="250.14" y1="234.6" x2="49.09" y2="234.6"/><text class="cls-2" transform="translate(74.6 247.97)"><tspan x="0" y="0">0.4</tspan></text><line class="cls-4" x1="45.27" y1="55.79" x2="49.72" y2="55.79"/><line class="cls-4" x1="45.27" y1="98.12" x2="49.72" y2="98.12"/><line class="cls-4" x1="45.27" y1="139.89" x2="49.72" y2="139.89"/><line class="cls-4" x1="45.27" y1="182.34" x2="49.72" y2="182.34"/><line class="cls-4" x1="45.27" y1="223.43" x2="49.72" y2="223.43"/><line class="cls-4" x1="250.14" y1="234.6" x2="250.14" y2="239.04"/><line class="cls-4" x1="207.39" y1="234.6" x2="207.39" y2="239.04"/><line class="cls-4" x1="164.33" y1="234.6" x2="164.33" y2="239.04"/><line class="cls-4" x1="122.6" y1="234.6" x2="122.6" y2="239.04"/><line class="cls-4" x1="79.87" y1="234.6" x2="79.87" y2="239.04"/><circle class="cls-6" cx="111.23" cy="102.72" r="2.4"/><circle class="cls-6" cx="82.27" cy="137.15" r="2.4"/><circle class="cls-6" cx="111.23" cy="200.05" r="2.4"/><circle class="cls-6" cx="103.6" cy="164.28" r="2.4"/><circle class="cls-6" cx="99.8" cy="142.29" r="2.4"/><circle class="cls-6" cx="135.8" cy="127.63" r="2.4"/><circle class="cls-6" cx="222.1" cy="74.62" r="2.4"/><circle class="cls-6" cx="156.88" cy="58.19" r="2.4"/><circle class="cls-6" cx="194.35" cy="79.42" r="2.4"/><circle class="cls-6" cx="174.13" cy="60.59" r="2.4"/><circle class="cls-6" cx="213.79" cy="115.89" r="2.4"/><circle class="cls-6" cx="133.4" cy="87.49" r="2.4"/><circle class="cls-6" cx="138.2" cy="86.09" r="2.4"/><circle class="cls-6" cx="150.04" cy="89.89" r="2.4"/><circle class="cls-6" cx="152.44" cy="90.89" r="2.4"/><circle class="cls-6" cx="167.34" cy="87.49" r="2.4"/><circle class="cls-6" cx="169.74" cy="88.49" r="2.4"/><circle class="cls-6" cx="183" cy="86.09" r="2.4"/><circle class="cls-6" cx="185.4" cy="85.09" r="2.4"/><circle class="cls-6" cx="223.19" cy="88.49" r="2.4"/><circle class="cls-6" cx="133.4" cy="96.85" r="2.4"/><circle class="cls-6" cx="112.63" cy="124.23" r="2.4"/><circle class="cls-6" cx="117.43" cy="121.44" r="2.4"/><circle class="cls-6" cx="127.26" cy="113.49" r="2.4"/><circle class="cls-6" cx="132.06" cy="116.64" r="2.4"/><circle class="cls-6" cx="174.13" cy="102.72" r="2.4"/><circle class="cls-6" cx="178.2" cy="107.52" r="2.4"/><circle class="cls-6" cx="147.64" cy="120.69" r="2.4"/><circle class="cls-6" cx="141.57" cy="115.24" r="2.4"/><circle class="cls-6" cx="142.84" cy="112.32" r="2.4"/><circle class="cls-6" cx="145.24" cy="111.09" r="2.4"/><circle class="cls-6" cx="154.84" cy="106.29" r="2.4"/><circle class="cls-6" cx="152.44" cy="114.72" r="2.4"/><circle class="cls-6" cx="165.61" cy="119.04" r="2.4"/><circle class="cls-6" cx="174.13" cy="118.29" r="2.4"/><circle class="cls-6" cx="180.6" cy="117.64" r="2.4"/><circle class="cls-6" cx="179.6" cy="123.09" r="2.4"/><circle class="cls-6" cx="143.97" cy="132.43" r="2.4"/><circle class="cls-6" cx="150.04" cy="132.43" r="2.4"/><circle class="cls-6" cx="162.21" cy="138.55" r="2.4"/><circle class="cls-6" cx="125.81" cy="144.69" r="2.4"/><circle class="cls-6" cx="134.46" cy="145.8" r="2.4"/><circle class="cls-6" cx="182" cy="143.65" r="2.4"/><circle class="cls-6" cx="169.74" cy="143.14" r="2.4"/><circle class="cls-6" cx="181" cy="149.45" r="2.4"/><circle class="cls-6" cx="154.48" cy="148.2" r="2.4"/><circle class="cls-6" cx="158.28" cy="159.48" r="2.4"/><circle class="cls-6" cx="156.88" cy="172.42" r="2.4"/><circle class="cls-6" cx="113.63" cy="157.08" r="2.4"/><circle class="cls-6" cx="116.43" cy="166.68" r="2.4"/><circle class="cls-6" cx="135.8" cy="171.48" r="2.4"/><line class="cls-3" x1="82.27" y1="150.6" x2="223.19" y2="88.49"/><text class="cls-2" transform="translate(117.12 247.97)"><tspan x="0" y="0">0.5</tspan></text><text class="cls-2" transform="translate(159.59 247.97)"><tspan x="0" y="0">0.6</tspan></text><text class="cls-2" transform="translate(202.06 247.97)"><tspan x="0" y="0">0.7</tspan></text><text class="cls-2" transform="translate(244.58 247.97)"><tspan x="0" y="0">0.8</tspan></text><text class="cls-2" transform="translate(31.32 226.6)"><tspan x="0" y="0">0.0</tspan></text><text class="cls-2" transform="translate(32.59 184.49)"><tspan x="0" y="0">0.1</tspan></text><text class="cls-2" transform="translate(31.31 142.4)"><tspan x="0" y="0">0.2</tspan></text><text class="cls-2" transform="translate(31.32 100.29)"><tspan x="0" y="0">0.3</tspan></text><text class="cls-2" transform="translate(31.24 58.19)"><tspan x="0" y="0">0.4</tspan></text></svg>