<?xml version="1.0" encoding="UTF-8"?><svg id="regular" xmlns="http://www.w3.org/2000/svg" viewBox="0 0 472.57 209.06"><defs><style>.cls-1{fill:#231f20;font-family:Helvetica, Helvetica;font-size:25px;letter-spacing:-.02em;}</style></defs><text class="cls-1" transform="translate(64.37 29.79)"><tspan x="0" y="0">T</tspan></text><text class="cls-1" transform="translate(156.76 29.23)"><tspan x="0" y="0">T</tspan></text><text class="cls-1" transform="translate(313.79 94.75)"><tspan x="0" y="0">T</tspan></text><text class="cls-1" transform="translate(432.33 98.49)"><tspan x="0" y="0">T</tspan></text><text class="cls-1" transform="translate(229.19 150.19)"><tspan x="0" y="0">T</tspan></text><text class="cls-1" transform="translate(0 73.47)"><tspan x="0" y="0">T</tspan></text><text class="cls-1" transform="translate(341.38 112.7)"><tspan x="0" y="0">T</tspan></text><text class="cls-1" transform="translate(94.22 73.47)"><tspan x="0" y="0">T</tspan></text><text class="cls-1" transform="translate(79.67 134.39)"><tspan x="0" y="0">T</tspan></text><text class="cls-1" transform="translate(5.35 187.41)"><tspan x="0" y="0">T</tspan></text><text class="cls-1" transform="translate(369.34 65.13)"><tspan x="0" y="0">T</tspan></text><text class="cls-1" transform="translate(368.97 178.92)"><tspan x="0" y="0">T</tspan></text><text class="cls-1" transform="translate(209.16 122.32)"><tspan x="0" y="0">T</tspan></text><text class="cls-1" transform="translate(260.13 169.46)"><tspan x="0" y="0">T</tspan></text><text class="cls-1" transform="translate(245.2 22.63)"><tspan x="0" y="0">T</tspan></text><text class="cls-1" transform="translate(305.42 145.18)"><tspan x="0" y="0">T</tspan></text><text class="cls-1" transform="translate(179.31 163.13)"><tspan x="0" y="0">T</tspan></text><text class="cls-1" transform="translate(88.8 187.41)"><tspan x="0" y="0">T</tspan></text><text class="cls-1" transform="translate(244.83 105.66)"><tspan x="0" y="0">T</tspan></text><text class="cls-1" transform="translate(133.33 116.44)"><tspan x="0" y="0">T</tspan></text><text class="cls-1" transform="translate(305.42 40.58)"><tspan x="0" y="0">T</tspan></text><text class="cls-1" transform="translate(413.79 40.58)"><tspan x="0" y="0">T</tspan></text><text class="cls-1" transform="translate(194.24 87.71)"><tspan x="0" y="0">T</tspan></text><text class="cls-1" transform="translate(4.6 134.39)"><tspan x="0" y="0">T</tspan></text><text class="cls-1" transform="translate(97.88 39.42)"><tspan x="0" y="0">T</tspan></text><text class="cls-1" transform="translate(175.34 50.2)"><tspan x="0" y="0">T</tspan></text><text class="cls-1" transform="translate(389.81 97.33)"><tspan x="0" y="0">T</tspan></text><text class="cls-1" transform="translate(457.65 197.03)"><tspan x="0" y="0">T</tspan></text><text class="cls-1" transform="translate(278.71 150.19)"><tspan x="0" y="0">T</tspan></text><text class="cls-1" transform="translate(33.51 83.09)"><tspan x="0" y="0">T</tspan></text><text class="cls-1" transform="translate(374.89 122.32)"><tspan x="0" y="0">T</tspan></text><text class="cls-1" transform="translate(133.71 56.8)"><tspan x="0" y="0">T</tspan></text><text class="cls-1" transform="translate(113.55 127.23)"><tspan x="0" y="0">T</tspan></text><text class="cls-1" transform="translate(39.23 163.13)"><tspan x="0" y="0">T</tspan></text><text class="cls-1" transform="translate(417.4 140.27)"><tspan x="0" y="0">T</tspan></text><text class="cls-1" transform="translate(402.48 188.55)"><tspan x="0" y="0">T</tspan></text><text class="cls-1" transform="translate(447.68 145.18)"><tspan x="0" y="0">T</tspan></text><text class="cls-1" transform="translate(298.85 80.54)"><tspan x="0" y="0">T</tspan></text><text class="cls-1" transform="translate(277.62 47.18)"><tspan x="0" y="0">T</tspan></text><text class="cls-1" transform="translate(338.93 154.8)"><tspan x="0" y="0">T</tspan></text><text class="cls-1" transform="translate(259.75 83.09)"><tspan x="0" y="0">T</tspan></text><text class="cls-1" transform="translate(148.63 178.92)"><tspan x="0" y="0">T</tspan></text><text class="cls-1" transform="translate(278.34 115.28)"><tspan x="0" y="0">T</tspan></text><text class="cls-1" transform="translate(166.84 126.06)"><tspan x="0" y="0">T</tspan></text><text class="cls-1" transform="translate(338.56 74.75)"><tspan x="0" y="0">T</tspan></text><text class="cls-1" transform="translate(447.3 50.2)"><tspan x="0" y="0">T</tspan></text><text class="cls-1" transform="translate(219.72 68.15)"><tspan x="0" y="0">T</tspan></text><text class="cls-1" transform="translate(68.33 107) rotate(-180)"><tspan x="0" y="0">T</tspan></text><text class="cls-1" transform="translate(157.13 83.09)"><tspan x="0" y="0">T</tspan></text><text class="cls-1" transform="translate(353.48 21.47)"><tspan x="0" y="0">T</tspan></text><text class="cls-1" transform="translate(20.27 21.47)"><tspan x="0" y="0">T</tspan></text><text class="cls-1" transform="translate(224.08 197.03)"><tspan x="0" y="0">T</tspan></text></svg>